<svg xmlns="http://www.w3.org/2000/svg" viewBox="0 0 78 78">
  <path stroke="#fff" stroke-width="1.5" d="M1.323 74.943l-.69.293.69-.293c.185.437.304.612.444.738.151.136.386.269.915.48.028.004.07.009.128.014.135.013.33.026.586.039.51.026 1.236.05 2.162.074 1.853.048 4.488.089 7.761.122 6.547.067 15.635.104 26.092.097l35.63-.022.757-.757.757-.757.022-35.63c.007-11.004-.028-20.088-.097-26.5a463.261 463.261 0 00-.127-7.516 75.298 75.298 0 00-.08-2.063 12.731 12.731 0 00-.04-.558 2.51 2.51 0 00-.016-.125C75.55.971 73.56.562 72.165 1.958l-.694.693v31.12c0 8.646-.034 16.506-.09 22.206-.028 2.85-.062 5.161-.099 6.763-.018.799-.038 1.426-.058 1.856-.01.213-.021.388-.034.515a2.13 2.13 0 01-.025.192.781.781 0 01-.154.354.755.755 0 01-.599.295c-.191 0-.332-.077-.344-.083h0a.815.815 0 01-.151-.1 11.982 11.982 0 01-.314-.285c-.19-.178-.462-.44-.813-.781a629.165 629.165 0 01-3.035-2.977c-2.619-2.582-6.386-6.316-11.02-10.922a17723.96 17723.96 0 01-35.99-35.899l-.017-.017-.016-.019c-1.74-1.986-4.746-5.093-7.43-7.753a156.439 156.439 0 00-3.565-3.438c-.486-.45-.895-.816-1.205-1.079a8.143 8.143 0 00-.372-.3c-.066-.05-.099-.07-.106-.074-2.113-.85-4.09 1.126-3.24 3.24.005.007.025.04.075.106.069.093.169.218.3.375.263.312.628.723 1.075 1.214.893.98 2.09 2.251 3.391 3.627.303.32.61.646.922.974 2.35 2.483 4.872 5.148 6.436 6.933 13.97 13.97 26.671 26.706 35.88 35.971 4.607 4.635 8.34 8.401 10.922 11.02 1.291 1.31 2.296 2.334 2.978 3.036.34.35.603.623.78.812a12.25 12.25 0 01.286.314.993.993 0 01.1.15c.001.004.083.148.083.346a.755.755 0 01-.491.708.942.942 0 01-.159.044 2.13 2.13 0 01-.191.026c-.127.012-.302.023-.515.033-.43.02-1.057.04-1.857.058-1.6.037-3.913.07-6.762.099-5.7.056-13.56.09-22.206.09v-.75.75c-15.702 0-23.545.001-27.578.113-2.031.057-3.038.141-3.586.253-.262.053-.376.105-.43.137a.985.985 0 00-.206.178c-.8.8-1.058 2.063-.718 2.861zm1.325 1.213a.051.051 0 000 0z"/>
</svg>
