<svg xmlns="http://www.w3.org/2000/svg" viewBox="0 0 30 20">
  <path fill-rule="evenodd" d="M19.768 19.95c-.214-.086-.375-.347-.375-.608 0-.24.006-.246 4.192-4.432 2.306-2.306 4.174-4.211 4.151-4.234-.022-.022-6.142-.04-13.6-.04-11.315 0-13.589-.014-13.749-.08a.605.605 0 010-1.13c.16-.066 2.434-.08 13.75-.08 7.457 0 13.577-.018 13.6-.04.022-.024-1.846-1.929-4.152-4.234L19.393.88V.636c0-.466.42-.761.83-.584.12.052 2.052 1.944 4.986 4.882L30 9.73v.521l-4.79 4.797c-2.789 2.791-4.87 4.83-4.98 4.878-.212.092-.285.096-.462.024z" clip-rule="evenodd"/>
</svg>
