<svg xmlns="http://www.w3.org/2000/svg" viewBox="0 0 16 29">
  <path d="M9.908.143C7.337.666 5.638 2.173 4.88 4.6c-.278.89-.352 1.7-.353 3.822v2.003l-1.942.002c-2.15 0-2.241.017-2.383.426-.118.345-.118 4.757 0 5.104.133.386.315.417 2.455.422l1.87.004v12.19l.172.2.172.198 2.553.022c2.752.024 3.007-.001 3.148-.308.06-.133.083-1.789.083-6.274v-6.094l2.384-.02c2.178-.019 2.396-.032 2.512-.147.117-.117.127-.328.127-2.782v-2.655l-.162-.161c-.162-.161-.175-.162-2.518-.182l-2.355-.021.024-1.894c.026-2.037.043-2.133.434-2.502.298-.282.47-.307 2.463-.347l1.948-.039.172-.199.172-.199V.35l-.175-.175L15.507 0l-2.479.006c-2.113.005-2.574.025-3.12.137z"/>
</svg>
