<svg xmlns="http://www.w3.org/2000/svg" viewBox="0 0 28 29">
  <path d="M9.22.86c-1.767.073-2.98.297-4.003.737-.956.411-1.524.79-2.23 1.488-.955.947-1.551 2.01-1.925 3.439-.33 1.26-.404 2.71-.405 7.965 0 5.167.07 6.635.38 7.894.77 3.141 3.075 5.138 6.46 5.6.974.133 3.01.189 6.895.188 3.613 0 5.697-.051 6.635-.162 1.916-.227 3.419-.887 4.598-2.02 1.335-1.283 2.041-2.82 2.3-5.005.1-.857.1-12.264-.001-13.07-.206-1.636-.698-2.982-1.466-4.014-.382-.512-1.193-1.29-1.704-1.634-1.152-.776-2.537-1.207-4.364-1.359C19.529.837 10.68.797 9.22.86zm11.584 2.58c1.526.226 2.383.606 3.206 1.424.534.53.832 1.002 1.092 1.727.441 1.232.48 1.884.48 7.924 0 3.48-.019 5.152-.066 5.717-.156 1.853-.525 2.853-1.396 3.78-.9.959-2.034 1.437-3.784 1.597-.948.087-8.78.13-10.584.058-.815-.033-1.668-.085-1.897-.117-1.013-.14-1.995-.497-2.601-.945-.384-.282-.992-.941-1.22-1.32-.447-.745-.718-1.798-.806-3.134-.161-2.426-.11-10.756.076-12.134.192-1.43.634-2.39 1.475-3.203.924-.894 2.134-1.329 4.008-1.442.403-.024 3.142-.038 6.087-.03 4.568.011 5.44.025 5.93.098zm.16 2.285c-.608.303-.893.771-.895 1.467 0 .504.12.802.461 1.143.34.34.64.46 1.145.46.36 0 .477-.023.733-.148.542-.266.848-.732.889-1.354.036-.55-.084-.873-.466-1.253-.354-.354-.662-.478-1.184-.478-.29 0-.417.03-.683.163zM13.11 7.573c-1.407.253-2.652.913-3.705 1.964-1.39 1.387-2.063 3.003-2.063 4.952 0 1.174.221 2.14.712 3.114 1.496 2.972 4.795 4.496 8.006 3.7 1.26-.313 2.237-.857 3.183-1.772.852-.825 1.425-1.723 1.784-2.797.259-.773.354-1.374.354-2.245 0-.866-.095-1.472-.348-2.228-.345-1.028-.843-1.841-1.617-2.64a6.982 6.982 0 00-3.84-2.052c-.594-.104-1.883-.102-2.466.004zm2.12 2.447c2.457.471 4.083 2.876 3.611 5.338-.286 1.495-1.385 2.819-2.788 3.36-.685.264-1.083.328-1.875.3-.562-.02-.784-.054-1.151-.17-1.626-.518-2.806-1.823-3.14-3.472-.13-.635-.08-1.623.112-2.224.508-1.59 1.851-2.808 3.45-3.126.477-.095 1.302-.098 1.782-.005z"/>
</svg>
