<svg xmlns="http://www.w3.org/2000/svg" viewBox="0 0 34 29">
  <path d="M22.658.93c-2.652.485-4.748 2.446-5.45 5.1-.12.458-.145.73-.148 1.634-.003.597.018 1.213.046 1.37l.05.285-.44-.04c-2.865-.266-5.183-.93-7.49-2.148-2.131-1.125-4.352-2.89-5.713-4.543-.204-.247-.4-.44-.435-.428-.035.012-.176.278-.313.591-.935 2.135-.76 4.604.46 6.521.357.561.94 1.224 1.412 1.609l.492.4h-.267c-.57 0-1.763-.325-2.404-.656a1.529 1.529 0 00-.31-.133c-.093 0 .029 1.205.179 1.782a6.89 6.89 0 004.47 4.816c.368.124.627.242.576.262-.294.114-1.258.19-2.007.16l-.84-.035.042.17c.071.287.551 1.21.85 1.633 1.15 1.629 3.026 2.748 4.857 2.896.278.023.504.063.504.09 0 .112-1.457 1.026-2.349 1.473-2.03 1.02-4.035 1.46-6.397 1.406l-1.204-.027.341.217c.498.316 2.006 1.085 2.683 1.37 3.648 1.529 7.906 1.877 11.926.975 5.916-1.328 10.782-5.482 13.24-11.3 1.051-2.489 1.578-4.932 1.632-7.565l.025-1.184.47-.382a15.7 15.7 0 001.788-1.724c.436-.498 1.074-1.357 1.036-1.395-.013-.013-.21.053-.437.147-.862.356-2.86.869-3.16.81-.073-.014-.02-.078.173-.208.491-.328 1.368-1.236 1.74-1.803.324-.491.797-1.455.8-1.626 0-.037-.399.131-.887.373-.882.437-2.032.858-2.933 1.074l-.472.112-.394-.369C26.877 1.215 24.68.56 22.658.93z"/>
</svg>
