<svg xmlns="http://www.w3.org/2000/svg" width="37" height="50" fill="none" viewBox="0 0 37 50">
    <g>
        <path fill="#FFCD39" d="M27.716 19.66H9.148a1.638 1.638 0 100 3.277h18.568a1.638 1.638 0 000-3.277z"/>
        <path fill="#FFCD39" d="M19.387 26.078H9.147a1.638 1.638 0 100 3.276h10.24a1.638 1.638 0 000-3.276z"/>
        <path fill="#FFCD39" d="M14.609 32.494H9.148a1.638 1.638 0 100 3.277h5.46a1.638 1.638 0 100-3.277z"/>
        <path fill="#F85B5B" fill-rule="evenodd"
              d="M26.76 29.3c2.12-2.18 7.423 1.634 0 6.54-7.423-4.905-2.12-8.72 0-6.54z" clip-rule="evenodd"/>
        <path fill="#515BFD" fill-rule="evenodd"
              d="M7.368 12.31C6.654 11.26 5.714 9.19 6.095 6.906 6.641 3.628 8.211 1.99 9.986.965c1.42-.818 3.232-.978 3.96-.955.842-.068 2.99.178 4.847 1.707 1.856 1.529 2.412 2.73 2.457 3.14.5-.432 1.939-1.297 3.686-1.297 2.185 0 3.482.887 4.301 1.707.82.819 2.117 2.594 1.843 4.915-.158 1.345-.54 2.27-.852 2.79-.172.287-.318.604-.337.939l-.035.637a1.365 1.365 0 01-1.375 1.29l-7.252-.058H8.21a.546.546 0 01-.546-.547v-2.03c0-.32-.117-.627-.297-.892zm17.637.193h-2.8V9.499c0-.82.479-1.775 1.161-2.184.683-.41 2.526-.82 3.619.34 1.092 1.161.819 2.898.273 3.687-.492.71-1.502 1.16-2.253 1.16zm-6.417.021h-4.7c-1.26 0-2.957-.758-3.782-1.954-.917-1.329-1.353-4.588.458-6.208 1.812-1.621 4.542-1.416 5.84-.46 1.296.955 2.184 2.3 2.184 3.564v5.058z"
              clip-rule="evenodd"/>
        <path fill="#515BFD" fill-rule="evenodd"
              d="M0 20.753a8.192 8.192 0 018.192-8.192h20.616A8.192 8.192 0 0137 20.753v14.063a8.192 8.192 0 01-8.192 8.191H16.52l2.185-1.638c.296-.228 1.338-.6 2.594-.546V39.73h6.963a5.461 5.461 0 005.461-5.462V21.3a5.461 5.461 0 00-5.461-5.461H8.738a5.461 5.461 0 00-5.461 5.46V34.27a5.461 5.461 0 005.461 5.462v1.092h1.843c.319-.023 1.051.054 1.434.546.327.421.411 1.174.414 1.638H8.192A8.192 8.192 0 010 34.816V20.752z"
              clip-rule="evenodd"/>
        <path fill="#515BFD" fill-rule="evenodd"
              d="M10.802 39.73H8.756c-.012.09-.018.181-.018.274v7.103c0 1.634 1.82 2.61 3.181 1.706l10.693-7.104c.734-.487.999-1.26.897-1.978h-3.015c-.882.042-1.6.228-2.13.546l-5.94 4.437V42.12c.023-.41-.027-1.352-.41-1.843-.309-.398-.849-.525-1.212-.546z"
              clip-rule="evenodd"/>
    </g>
</svg>
